<?xml version="1.0" standalone="no"?>
<!DOCTYPE svg PUBLIC "-//W3C//DTD SVG 20010904//EN"
 "http://www.w3.org/TR/2001/REC-SVG-20010904/DTD/svg10.dtd">
<svg version="1.0" xmlns="http://www.w3.org/2000/svg"
 width="192.000000pt" height="192.000000pt" viewBox="0 0 192.000000 192.000000"
 preserveAspectRatio="xMidYMid meet">

<g transform="translate(0.000000,192.000000) scale(0.100000,-0.100000)"
fill="#000000" stroke="none">
<path d="M1027 1490 c-21 -6 -60 -19 -86 -30 l-48 -21 -76 25 c-60 21 -95 26
-169 26 -137 0 -236 -32 -330 -105 l-43 -33 -58 56 c-57 56 -58 57 -84 42 -15
-9 -34 -28 -43 -43 l-15 -27 140 -140 c77 -77 145 -140 150 -140 12 0 75 62
75 74 0 4 -25 34 -55 66 l-56 58 30 25 c101 84 295 120 419 76 l32 -11 -57
-62 c-101 -108 -143 -214 -144 -363 -1 -165 47 -295 151 -406 82 -88 160 -127
269 -134 112 -8 155 7 221 76 93 97 150 240 135 339 -16 106 -76 212 -119 212
-37 0 -39 -26 -7 -98 16 -37 32 -89 35 -117 l6 -50 -29 60 c-17 35 -31 54 -34
45 -2 -8 -9 -30 -15 -47 -6 -20 -7 -35 -1 -39 5 -3 9 -31 9 -62 -1 -50 -2 -55
-14 -39 -8 10 -26 17 -45 17 -41 0 -40 20 2 21 30 2 30 2 5 6 -34 5 -37 23 -5
24 17 1 18 2 4 6 -19 5 -18 21 10 81 20 45 11 64 -24 56 -47 -11 -70 -31 -88
-79 -10 -25 -21 -45 -26 -45 -5 0 -6 7 -3 15 3 8 -6 25 -21 39 -22 20 -31 23
-46 15 -26 -13 -24 -28 9 -69 53 -64 56 -76 32 -124 -29 -62 -54 -81 -104 -81
-54 0 -86 22 -141 96 -70 95 -89 155 -89 279 0 126 20 188 92 283 107 140 269
202 463 177 94 -11 165 -33 250 -74 102 -51 101 -48 40 -110 -36 -36 -51 -59
-46 -68 18 -31 50 -58 69 -58 25 0 286 256 286 280 0 20 -51 70 -70 70 -8 0
-40 -25 -71 -56 l-57 -57 -29 21 c-50 35 -165 89 -228 107 -71 19 -302 29
-358 15z m159 -789 c-10 -16 -46 -20 -46 -5 0 8 10 14 26 14 14 0 23 -4 20 -9z"/>
<path d="M75 1322 c-5 -4 -19 -17 -29 -30 l-20 -23 104 -104 c58 -58 112 -105
121 -105 16 0 59 40 59 55 0 13 -202 215 -215 215 -5 0 -14 -4 -20 -8z"/>
<path d="M1707 1231 c-53 -54 -97 -105 -97 -113 0 -19 42 -58 61 -58 16 0 219
201 219 217 0 17 -45 53 -66 53 -12 0 -59 -39 -117 -99z"/>
<path d="M32 1177 c-12 -13 -22 -30 -22 -38 0 -17 90 -109 106 -109 6 0 23 13
38 29 l28 30 -52 55 c-29 31 -58 56 -65 56 -6 0 -21 -10 -33 -23z"/>
<path d="M1790 1145 l-54 -55 32 -32 32 -32 55 54 c30 30 55 59 55 65 0 14
-42 55 -56 55 -5 0 -34 -25 -64 -55z"/>
<path d="M1010 933 c0 -12 5 -25 10 -28 13 -8 13 15 0 35 -8 12 -10 11 -10 -7z"/>
</g>
</svg>
